<svg width="126" height="133" viewBox="0 0 126 133" fill="none" xmlns="http://www.w3.org/2000/svg">
<path d="M43.8908 68.6059H81.7101C83.3048 68.6059 84.5978 69.8989 84.5978 71.4936V121.296C84.5978 123.388 82.4432 124.785 80.5334 123.933L65.1535 117.07C63.656 116.402 61.9449 116.402 60.4474 117.07L45.0676 123.933C43.1577 124.785 41.0031 123.388 41.0031 121.296V71.4936C41.0031 69.8989 42.2962 68.6059 43.8908 68.6059Z" fill="url(#paint0_linear_255_8090)" stroke="url(#paint1_linear_255_8090)" stroke-width="2.88738"/>
<g clip-path="url(#clip0_255_8090)">
<path d="M74.4878 78.3906L138.78 41.2715C138.983 41.1544 139.242 41.2239 139.359 41.4266C148.993 58.1133 143.276 79.4505 126.589 89.0846L92.1438 108.972L74.4878 78.3906Z" fill="#5E1D03"/>
</g>
<g clip-path="url(#clip1_255_8090)">
<path d="M74.4876 72.3095L139.147 34.9784C148.898 51.8679 143.111 73.4643 126.222 83.2155L92.1436 102.891L74.4876 72.3095Z" fill="url(#paint2_linear_255_8090)"/>
</g>
<g clip-path="url(#clip2_255_8090)">
<path d="M51.5122 78.3906L-12.78 41.2715C-12.9827 41.1544 -13.242 41.2239 -13.3591 41.4266C-22.9931 58.1133 -17.2758 79.4505 -0.589154 89.0846L33.8562 108.972L51.5122 78.3906Z" fill="#5E1D03"/>
</g>
<g clip-path="url(#clip3_255_8090)">
<path d="M51.5124 72.3095L-13.1469 34.9784C-22.898 51.8679 -17.1113 73.4643 -0.221839 83.2155L33.8564 102.891L51.5124 72.3095Z" fill="url(#paint3_linear_255_8090)"/>
</g>
<g filter="url(#filter0_d_255_8090)">
<path d="M51.4505 26.4993C58.5974 22.373 67.4027 22.373 74.5495 26.4993L91.908 36.5212C99.0548 40.6474 103.457 48.2731 103.457 56.5255V76.5694C103.457 84.8218 99.0548 92.4474 91.908 96.5737L74.5495 106.596C67.4027 110.722 58.5974 110.722 51.4505 106.596L34.0921 96.5737C26.9452 92.4474 22.5425 84.8218 22.5425 76.5693V56.5255C22.5425 48.273 26.9452 40.6474 34.0921 36.5212L51.4505 26.4993Z" fill="black" style="mix-blend-mode:multiply" shape-rendering="crispEdges"/>
</g>
<path d="M51.4505 26.4993C58.5974 22.373 67.4027 22.373 74.5495 26.4993L91.908 36.5212C99.0548 40.6474 103.457 48.2731 103.457 56.5255V76.5694C103.457 84.8218 99.0548 92.4474 91.908 96.5737L74.5495 106.596C67.4027 110.722 58.5974 110.722 51.4505 106.596L34.0921 96.5737C26.9452 92.4474 22.5425 84.8218 22.5425 76.5693V56.5255C22.5425 48.273 26.9452 40.6474 34.0921 36.5212L51.4505 26.4993Z" fill="#0C3855"/>
<path d="M51.4505 26.4993C58.5974 22.373 67.4027 22.373 74.5495 26.4993L91.908 36.5212C99.0548 40.6474 103.457 48.2731 103.457 56.5255V76.5694C103.457 84.8218 99.0548 92.4474 91.908 96.5737L74.5495 106.596C67.4027 110.722 58.5974 110.722 51.4505 106.596L34.0921 96.5737C26.9452 92.4474 22.5425 84.8218 22.5425 76.5693V56.5255C22.5425 48.273 26.9452 40.6474 34.0921 36.5212L51.4505 26.4993Z" fill="#FEBDA3"/>
<path d="M51.4505 20.4183C58.5974 16.292 67.4027 16.2921 74.5495 20.4183L91.908 30.4402C99.0548 34.5665 103.457 42.1921 103.457 50.4445V70.4884C103.457 78.7409 99.0548 86.3665 91.908 90.4927L74.5495 100.515C67.4027 104.641 58.5974 104.641 51.4505 100.515L34.0921 90.4927C26.9452 86.3664 22.5425 78.7408 22.5425 70.4883V50.4445C22.5425 42.1921 26.9452 34.5664 34.0921 30.4402L51.4505 20.4183Z" fill="url(#paint4_radial_255_8090)"/>
<path d="M51.4505 20.4183C58.5974 16.292 67.4027 16.2921 74.5495 20.4183L91.908 30.4402C99.0548 34.5665 103.457 42.1921 103.457 50.4445V70.4884C103.457 78.7409 99.0548 86.3665 91.908 90.4927L74.5495 100.515C67.4027 104.641 58.5974 104.641 51.4505 100.515L34.0921 90.4927C26.9452 86.3664 22.5425 78.7408 22.5425 70.4883V50.4445C22.5425 42.1921 26.9452 34.5664 34.0921 30.4402L51.4505 20.4183Z" fill="white" fill-opacity="0.1" style="mix-blend-mode:color-dodge"/>
<path d="M55.7817 26.1919C60.2485 23.613 65.7514 23.613 70.2182 26.1919L89.0737 37.0776C93.5405 39.6565 96.2924 44.4228 96.2924 49.5806V71.353C96.2923 76.5106 93.5403 81.2762 89.0737 83.855L70.2182 94.7417C65.7515 97.3204 60.2483 97.3204 55.7817 94.7417L36.9262 83.855C32.4596 81.2761 29.7076 76.5106 29.7075 71.353V49.5806C29.7075 44.4228 32.4594 39.6565 36.9262 37.0776L55.7817 26.1919Z" fill="url(#paint5_radial_255_8090)"/>
<path d="M55.7817 26.1919C60.2485 23.613 65.7514 23.613 70.2182 26.1919L89.0737 37.0776C93.5405 39.6565 96.2924 44.4228 96.2924 49.5806V71.353C96.2923 76.5106 93.5403 81.2762 89.0737 83.855L70.2182 94.7417C65.7515 97.3204 60.2483 97.3204 55.7817 94.7417L36.9262 83.855C32.4596 81.2761 29.7076 76.5106 29.7075 71.353V49.5806C29.7075 44.4228 32.4594 39.6565 36.9262 37.0776L55.7817 26.1919Z" fill="url(#paint6_linear_255_8090)" fill-opacity="0.2" style="mix-blend-mode:multiply"/>
<path d="M55.7817 26.1919C60.2485 23.613 65.7514 23.613 70.2182 26.1919L89.0737 37.0776C93.5405 39.6565 96.2924 44.4228 96.2924 49.5806V71.353C96.2923 76.5106 93.5403 81.2762 89.0737 83.855L70.2182 94.7417C65.7515 97.3204 60.2483 97.3204 55.7817 94.7417L36.9262 83.855C32.4596 81.2761 29.7076 76.5106 29.7075 71.353V49.5806C29.7075 44.4228 32.4594 39.6565 36.9262 37.0776L55.7817 26.1919Z" stroke="url(#paint7_linear_255_8090)" stroke-width="5.77476"/>
<path d="M60.1468 48.0037C61.2922 45.6036 64.7085 45.6035 65.8538 48.0037L68.5843 53.7273C68.6243 53.8109 68.7043 53.8684 68.7962 53.8806L75.0833 54.7097C77.72 55.0573 78.7758 58.3065 76.847 60.1375L72.2474 64.5037C72.1803 64.5676 72.1504 64.6615 72.1673 64.7527L73.3216 70.988C73.8055 73.6028 71.0417 75.6109 68.7044 74.3425L63.1312 71.3171C63.0496 71.2729 62.951 71.273 62.8694 71.3171L57.2952 74.3425C54.958 75.6106 52.1942 73.6027 52.678 70.988L53.8333 64.7527C53.8502 64.6615 53.8194 64.5676 53.7523 64.5037L49.1526 60.1375C47.2241 58.3065 48.2799 55.0575 50.9163 54.7097L57.2034 53.8806C57.2954 53.8685 57.3753 53.8109 57.4153 53.7273L60.1468 48.0037Z" fill="url(#paint8_linear_255_8090)" stroke="url(#paint9_linear_255_8090)" stroke-width="2.88738"/>
<circle cx="55.3377" cy="58.2471" r="1.12024" fill="#FDFBCD"/>
<path d="M58.4592 57.4737C59.9299 56.7975 60.6367 56.1363 61.3212 54.4711" stroke="#FEFDCF" stroke-width="3.68489" stroke-linecap="round"/>
<path d="M51.4505 20.4183C58.5974 16.292 67.4027 16.2921 74.5495 20.4183L91.908 30.4402C99.0548 34.5665 103.457 42.1921 103.457 50.4445V70.4884C103.457 78.7409 99.0548 86.3665 91.908 90.4927L74.5495 100.515C67.4027 104.641 58.5974 104.641 51.4505 100.515L34.0921 90.4927C26.9452 86.3664 22.5425 78.7408 22.5425 70.4883V50.4445C22.5425 42.1921 26.9452 34.5664 34.0921 30.4402L51.4505 20.4183Z" fill="#FEBDA3"/>
<path d="M81.07 87.61C81.5564 86.8398 83.0145 86.3301 84.3132 86.0376C85.1966 85.8387 85.9537 86.5169 85.594 87.3479C85.1966 88.2662 84.5191 89.2393 83.9202 90.0094C82.9499 91.257 80.1753 89.0264 81.07 87.61Z" fill="#611E03"/>
<path fill-rule="evenodd" clip-rule="evenodd" d="M85.6781 87.0277C85.6673 87.1305 85.6412 87.2379 85.5937 87.3477C85.1963 88.2659 84.5189 89.2391 83.92 90.0091C82.9678 91.2335 80.2797 89.1093 81.025 87.6909C80.8738 89.0671 83.1758 90.7242 84.0419 89.6107C84.6235 88.8628 85.2768 87.9223 85.6781 87.0277Z" fill="white"/>
<path d="M89.1989 88.0156C89.0982 88.5289 87.2875 89.2115 86.1316 89.0809C85.0214 88.6003 86.6938 86.7276 87.2934 86.6241C87.8929 86.5206 89.3249 87.374 89.1989 88.0156Z" fill="#611E03"/>
<path d="M88.6663 87.148C89.0088 87.4123 89.2533 87.7345 89.198 88.0159C89.0966 88.5291 87.2866 89.2112 86.1309 89.0808C86.0358 89.0396 85.963 88.9863 85.9063 88.9267C85.944 88.9521 85.9845 88.9782 86.032 88.9988C87.1879 89.1293 88.9985 88.4462 89.0993 87.9329C89.1489 87.6798 88.9549 87.3953 88.6663 87.148Z" fill="white"/>
<path d="M75.6753 23.8731C75.5708 24.879 76.0372 26.5577 76.8423 28.2609C77.7971 30.2807 79.699 31.6561 81.8443 32.2797C81.9675 32.3155 82.0894 32.3501 82.2102 32.3834C86.6586 33.611 88.38 29.8094 84.6411 27.1044C81.9363 25.1476 78.8198 23.3885 77.0787 23.0287C76.4333 22.8954 75.7434 23.2177 75.6753 23.8731Z" fill="white"/>
<g opacity="0.2" filter="url(#filter1_f_255_8090)" style="mix-blend-mode:soft-light">
<path fill-rule="evenodd" clip-rule="evenodd" d="M51.6255 20.3203C58.7409 16.2939 67.4605 16.3253 74.5494 20.4179L80.7525 23.999C81.8453 29.4291 82.0498 34.8858 81.2974 40.0713C79.7483 50.7468 74.2825 59.3981 66.1021 64.1211C57.9216 68.8441 47.6963 69.2521 37.6763 65.2558C32.2205 63.0799 27.0707 59.6926 22.5425 55.3857V50.4443C22.5426 42.2532 26.881 34.6812 33.9341 30.5342L51.6255 20.3203Z" fill="url(#paint10_linear_255_8090)"/>
</g>
<defs>
<filter id="filter0_d_255_8090" x="10.993" y="23.4046" width="104.014" height="109.385" filterUnits="userSpaceOnUse" color-interpolation-filters="sRGB">
<feFlood flood-opacity="0" result="BackgroundImageFix"/>
<feColorMatrix in="SourceAlpha" type="matrix" values="0 0 0 0 0 0 0 0 0 0 0 0 0 0 0 0 0 0 127 0" result="hardAlpha"/>
<feOffset dy="11.5495"/>
<feGaussianBlur stdDeviation="5.77476"/>
<feComposite in2="hardAlpha" operator="out"/>
<feColorMatrix type="matrix" values="0 0 0 0 0 0 0 0 0 0 0 0 0 0 0 0 0 0 0.25 0"/>
<feBlend mode="normal" in2="BackgroundImageFix" result="effect1_dropShadow_255_8090"/>
<feBlend mode="normal" in="SourceGraphic" in2="effect1_dropShadow_255_8090" result="shape"/>
</filter>
<filter id="filter1_f_255_8090" x="5.21826" y="1.90735e-06" width="93.8514" height="85.3081" filterUnits="userSpaceOnUse" color-interpolation-filters="sRGB">
<feFlood flood-opacity="0" result="BackgroundImageFix"/>
<feBlend mode="normal" in="SourceGraphic" in2="BackgroundImageFix" result="shape"/>
<feGaussianBlur stdDeviation="8.66214" result="effect1_foregroundBlur_255_8090"/>
</filter>
<linearGradient id="paint0_linear_255_8090" x1="62.8005" y1="95.1265" x2="62.8005" y2="127.972" gradientUnits="userSpaceOnUse">
<stop stop-color="#7B1012"/>
<stop offset="1" stop-color="#EA1140"/>
</linearGradient>
<linearGradient id="paint1_linear_255_8090" x1="62.8005" y1="88.2044" x2="62.8005" y2="127.972" gradientUnits="userSpaceOnUse">
<stop stop-color="#E67D2D"/>
<stop offset="1" stop-color="#FCDC60"/>
</linearGradient>
<linearGradient id="paint2_linear_255_8090" x1="83.3156" y1="87.6" x2="147.975" y2="50.269" gradientUnits="userSpaceOnUse">
<stop stop-color="#5E1D03"/>
<stop offset="1" stop-color="#D89C82"/>
</linearGradient>
<linearGradient id="paint3_linear_255_8090" x1="42.6844" y1="87.6" x2="-21.9749" y2="50.269" gradientUnits="userSpaceOnUse">
<stop stop-color="#5E1D03"/>
<stop offset="1" stop-color="#D89C82"/>
</linearGradient>
<radialGradient id="paint4_radial_255_8090" cx="0" cy="0" r="1" gradientUnits="userSpaceOnUse" gradientTransform="translate(63 13.7502) rotate(90) scale(93.4325 80.9149)">
<stop stop-color="#95CCEA"/>
<stop offset="1" stop-color="#104D7D"/>
</radialGradient>
<radialGradient id="paint5_radial_255_8090" cx="0" cy="0" r="1" gradientUnits="userSpaceOnUse" gradientTransform="translate(63 25.3579) rotate(90) scale(70.217 60.8097)">
<stop stop-color="#95CCEA"/>
<stop offset="1" stop-color="#104D7D"/>
</radialGradient>
<linearGradient id="paint6_linear_255_8090" x1="63" y1="25.3579" x2="63" y2="95.5749" gradientUnits="userSpaceOnUse">
<stop stop-opacity="0"/>
<stop offset="1"/>
</linearGradient>
<linearGradient id="paint7_linear_255_8090" x1="41.7884" y1="25.3579" x2="83.5294" y2="95.5749" gradientUnits="userSpaceOnUse">
<stop stop-color="#0C3855"/>
<stop offset="1" stop-color="#90DDFF"/>
</linearGradient>
<linearGradient id="paint8_linear_255_8090" x1="54.4107" y1="50.9257" x2="64.1355" y2="70.7542" gradientUnits="userSpaceOnUse">
<stop stop-color="#FFE49B"/>
<stop offset="1" stop-color="#99895D"/>
</linearGradient>
<linearGradient id="paint9_linear_255_8090" x1="65.0979" y1="85.2238" x2="46.4319" y2="47.6472" gradientUnits="userSpaceOnUse">
<stop stop-color="#63141C"/>
<stop offset="1" stop-color="#F98B96"/>
</linearGradient>
<linearGradient id="paint10_linear_255_8090" x1="66.101" y1="64.2724" x2="44.8447" y2="25.9526" gradientUnits="userSpaceOnUse">
<stop stop-color="white"/>
<stop offset="1" stop-color="white" stop-opacity="0.2"/>
</linearGradient>
<clipPath id="clip0_255_8090">
<rect width="22.5425" height="43.2817" fill="white" transform="translate(103.457 40.9302)"/>
</clipPath>
<clipPath id="clip1_255_8090">
<rect width="22.5425" height="43.2817" fill="white" transform="translate(103.457 34.8492)"/>
</clipPath>
<clipPath id="clip2_255_8090">
<rect width="22.5425" height="43.2817" fill="white" transform="matrix(-1 0 0 1 22.5425 40.9302)"/>
</clipPath>
<clipPath id="clip3_255_8090">
<rect width="22.5425" height="43.2817" fill="white" transform="matrix(-1 0 0 1 22.5425 34.8492)"/>
</clipPath>
</defs>
</svg>
