<svg width="79" height="74" viewBox="0 0 79 74" fill="none" xmlns="http://www.w3.org/2000/svg">
<path d="M76.2385 33.1068C74.2426 29.187 69.4445 27.629 65.5247 29.6238C65.2157 29.7806 64.9229 29.9584 64.6418 30.1466L43.6196 44.6861H69.1436C70.3576 44.6861 71.6007 44.4096 72.7567 43.8205C76.6753 41.82 78.2356 37.0265 76.2385 33.1068Z" fill="white"/>
<path d="M55.8227 16.5921L44.8022 41.9418L67.5171 26.2266C68.0062 25.8874 68.4651 25.4831 68.8821 25.0254C71.7924 21.7933 71.5298 16.8163 68.2989 13.9084C65.0704 10.9959 60.0911 11.2596 57.182 14.4905C56.6046 15.1341 56.1538 15.8439 55.8227 16.5921Z" fill="white"/>
<path d="M55.7693 12.855C56.0702 12.1463 56.2724 11.3831 56.356 10.578C56.8173 6.20276 53.6398 2.28296 49.2658 1.8229C44.8906 1.36401 40.9708 4.53911 40.5119 8.91431C40.4666 9.35114 40.4538 9.7868 40.4805 10.2167H40.4724C40.4724 10.3491 40.5305 10.4107 40.6792 10.4107C40.8256 10.4107 42.5938 10.4107 42.7948 10.4107C43.2269 10.4107 43.8729 10.5385 43.8729 10.8789C43.8729 11.1391 42.7239 11.3831 42.0152 12.065C41.2682 12.7818 40.929 14.0633 41.1079 15.2959V15.2889L44.6466 39.1237L55.7693 12.855Z" fill="white"/>
<path d="M10.2583 44.6861H35.7788L14.7544 30.1466C14.4767 29.9584 14.1816 29.7806 13.8749 29.6238C9.95279 27.629 5.1547 29.187 3.16111 33.1068C1.16288 37.0265 2.72313 41.82 6.64176 43.8205C7.79888 44.4096 9.04313 44.6861 10.2583 44.6861Z" fill="white"/>
<path d="M23.5757 16.5923L34.595 41.9408L11.8813 26.2256C11.3922 25.8864 10.9333 25.4821 10.5186 25.0244C7.60836 21.7924 7.86976 16.8154 11.0995 13.9075C14.3315 10.9949 19.3062 11.2586 22.2176 14.4895C22.795 15.1343 23.2492 15.8441 23.5757 16.5923Z" fill="white"/>
<path d="M38.9179 10.2167L34.7495 39.1237L23.6279 12.855C23.3282 12.1463 23.1284 11.3831 23.0436 10.578C22.5835 6.20276 25.7598 2.28296 30.1326 1.8229C34.5079 1.36401 38.4288 4.53911 38.8854 8.91431C38.933 9.35114 38.9423 9.7868 38.9179 10.2167Z" fill="white"/>
<path d="M15.3737 51.8787C15.0972 50.5392 13.9981 50.1872 12.7725 50.0722C8.80621 49.7051 8.10102 52.6664 8.10102 53.9188C8.10102 56.0564 8.72721 57.8107 12.6226 57.8107C13.3383 57.8107 15.3214 57.0893 15.3214 55.8903H20.9211C20.698 59.4465 14.7068 60.3004 12.0952 60.3004C6.6825 60.3004 2.05055 59.2943 2.27361 53.9699C2.43741 50.1663 6.03191 47.4966 13.1861 47.6615C17.1709 47.758 21.0001 48.9952 21.0164 51.8799H15.3737" fill="white"/>
<path d="M71.4601 51.8787C71.1848 50.5392 70.0869 50.1872 68.8601 50.0722C64.895 49.7051 64.1909 52.6664 64.1909 53.9188C64.1909 56.0564 64.8148 57.8107 68.7102 57.8107C69.427 57.8107 71.4101 57.0893 71.4101 55.8903H77.0075C76.7856 59.4465 70.7956 60.3004 68.1839 60.3004C62.7724 60.3004 58.1393 59.2943 58.3635 53.9699C58.5227 50.1663 62.1172 47.4966 69.2702 47.6615C73.2573 47.758 77.0865 48.9952 77.1063 51.8799H71.4601" fill="white"/>
<path d="M22.0154 47.917H29.2845L35.4884 56.6082H35.5383V47.917H40.197V59.9819H33.2334L26.7275 51.2942H26.6775V59.9819H22.0154V47.917Z" fill="white"/>
<path d="M46.7494 57.4528H48.2121C50.9294 57.4528 51.9285 57.1681 51.9285 56.2341C51.9285 55.2291 50.6657 54.8922 48.6384 54.8922H46.7494V57.4528ZM46.7494 52.6047H48.2121C50.4647 52.6047 51.6637 52.4281 51.6637 51.4941C51.6637 50.4891 50.6657 50.1569 48.6384 50.1569H46.7494V52.6047ZM41.6365 47.917H50.4636C54.711 47.917 57.2053 49.102 57.2053 50.8934C57.2053 51.946 56.1597 53.2518 53.8315 53.6352V53.6712C56.6372 53.8373 57.6723 55.609 57.6723 56.6709C57.6723 58.7981 55.2373 59.9819 50.4891 59.9819H41.6365V47.917Z" fill="white"/>
<path d="M76.2385 33.1068C74.2426 29.187 69.4445 27.629 65.5247 29.6238C65.2157 29.7806 64.9229 29.9584 64.6418 30.1466L43.6196 44.6861H69.1436C70.3576 44.6861 71.6007 44.4096 72.7567 43.8205C76.6753 41.82 78.2356 37.0265 76.2385 33.1068Z" fill="white"/>
<path d="M55.8227 16.5921L44.8022 41.9418L67.5171 26.2266C68.0062 25.8874 68.4651 25.4831 68.8821 25.0254C71.7924 21.7933 71.5298 16.8163 68.2989 13.9084C65.0704 10.9959 60.0911 11.2596 57.182 14.4905C56.6046 15.1341 56.1538 15.8439 55.8227 16.5921Z" fill="white"/>
<path d="M55.7693 12.855C56.0702 12.1463 56.2724 11.3831 56.356 10.578C56.8173 6.20276 53.6398 2.28296 49.2658 1.8229C44.8906 1.36401 40.9708 4.53911 40.5119 8.91431C40.4666 9.35114 40.4538 9.7868 40.4805 10.2167H40.4724C40.4724 10.3491 40.5305 10.4107 40.6792 10.4107C40.8256 10.4107 42.5938 10.4107 42.7948 10.4107C43.2269 10.4107 43.8729 10.5385 43.8729 10.8789C43.8729 11.1391 42.7239 11.3831 42.0152 12.065C41.2682 12.7818 40.929 14.0633 41.1079 15.2959V15.2889L44.6466 39.1237L55.7693 12.855Z" fill="white"/>
<path d="M10.2583 44.6861H35.7788L14.7544 30.1466C14.4767 29.9584 14.1816 29.7806 13.8749 29.6238C9.95279 27.629 5.1547 29.187 3.16111 33.1068C1.16288 37.0265 2.72313 41.82 6.64176 43.8205C7.79888 44.4096 9.04313 44.6861 10.2583 44.6861Z" fill="white"/>
<path d="M23.5757 16.5923L34.595 41.9408L11.8813 26.2256C11.3922 25.8864 10.9333 25.4821 10.5186 25.0244C7.60836 21.7924 7.86976 16.8154 11.0995 13.9075C14.3315 10.9949 19.3062 11.2586 22.2176 14.4895C22.795 15.1343 23.2492 15.8441 23.5757 16.5923Z" fill="white"/>
<path d="M38.9179 10.2167L34.7495 39.1237L23.6279 12.855C23.3282 12.1463 23.1284 11.3831 23.0436 10.578C22.5835 6.20276 25.7598 2.28296 30.1326 1.8229C34.5079 1.36401 38.4288 4.53911 38.8854 8.91431C38.933 9.35114 38.9423 9.7868 38.9179 10.2167Z" fill="white"/>
</svg>
