<svg width="222" height="42" viewBox="0 0 222 42" fill="none" xmlns="http://www.w3.org/2000/svg">
<path d="M21.7188 28.455L39.375 16.59L34.9219 13.5975L21.7188 22.47L15.1562 18.06L10.7031 21.0525L21.7188 28.455ZM25 42C17.7604 40.775 11.7839 37.9837 7.07031 33.6262C2.35677 29.2687 0 24.43 0 19.11V6.3L25 0L50 6.3V19.11C50 24.43 47.6432 29.2687 42.9297 33.6262C38.2161 37.9837 32.2396 40.775 25 42ZM25 37.59C30.4167 36.435 34.8958 34.125 38.4375 30.66C41.9792 27.195 43.75 23.345 43.75 19.11V9.1875L25 4.4625L6.25 9.1875V19.11C6.25 23.345 8.02083 27.195 11.5625 30.66C15.1042 34.125 19.5833 36.435 25 37.59Z" fill="#003249"/>
<path d="M65.4681 33L72.5081 9.96H79.0041L86.0441 33H81.5641L75.2921 12.68H76.1241L69.9481 33H65.4681ZM69.6921 28.2V24.136H81.8521V28.2H69.6921ZM95.9909 33.48C94.2842 33.48 92.7429 33.1813 91.3669 32.584C90.0015 31.976 88.8762 31.112 87.9909 29.992C87.1162 28.8613 86.5615 27.5173 86.3269 25.96L90.8709 25.288C91.1909 26.6107 91.8522 27.6293 92.8549 28.344C93.8575 29.0587 94.9989 29.416 96.2789 29.416C96.9935 29.416 97.6869 29.304 98.3589 29.08C99.0309 28.856 99.5802 28.5253 100.007 28.088C100.444 27.6507 100.663 27.112 100.663 26.472C100.663 26.2373 100.626 26.0133 100.551 25.8C100.487 25.576 100.375 25.368 100.215 25.176C100.055 24.984 99.8255 24.8027 99.5269 24.632C99.2389 24.4613 98.8709 24.3067 98.4229 24.168L92.4389 22.408C91.9909 22.28 91.4682 22.0987 90.8709 21.864C90.2842 21.6293 89.7135 21.2933 89.1589 20.856C88.6042 20.4187 88.1402 19.8427 87.7669 19.128C87.4042 18.4027 87.2229 17.4907 87.2229 16.392C87.2229 14.8453 87.6122 13.56 88.3909 12.536C89.1695 11.512 90.2095 10.7493 91.5109 10.248C92.8122 9.74667 94.2522 9.50133 95.8309 9.512C97.4202 9.53333 98.8389 9.80533 100.087 10.328C101.335 10.8507 102.38 11.6133 103.223 12.616C104.066 13.608 104.674 14.824 105.047 16.264L100.343 17.064C100.172 16.3173 99.8575 15.688 99.3989 15.176C98.9402 14.664 98.3909 14.2747 97.7509 14.008C97.1215 13.7413 96.4602 13.5973 95.7669 13.576C95.0842 13.5547 94.4389 13.6507 93.8309 13.864C93.2335 14.0667 92.7429 14.3653 92.3589 14.76C91.9855 15.1547 91.7989 15.624 91.7989 16.168C91.7989 16.6693 91.9535 17.08 92.2629 17.4C92.5722 17.7093 92.9615 17.96 93.4309 18.152C93.9002 18.344 94.3802 18.504 94.8709 18.632L98.8709 19.72C99.4682 19.88 100.13 20.0933 100.855 20.36C101.58 20.616 102.274 20.9787 102.935 21.448C103.607 21.9067 104.156 22.5147 104.583 23.272C105.02 24.0293 105.239 24.9893 105.239 26.152C105.239 27.3893 104.978 28.472 104.455 29.4C103.943 30.3173 103.25 31.08 102.375 31.688C101.5 32.2853 100.508 32.7333 99.3989 33.032C98.3002 33.3307 97.1642 33.48 95.9909 33.48ZM117.644 33.48C115.34 33.48 113.35 32.9787 111.676 31.976C110.012 30.9733 108.726 29.5707 107.82 27.768C106.924 25.9653 106.476 23.8693 106.476 21.48C106.476 19.0907 106.924 16.9947 107.82 15.192C108.726 13.3893 110.012 11.9867 111.676 10.984C113.35 9.98133 115.34 9.48 117.644 9.48C119.948 9.48 121.932 9.98133 123.596 10.984C125.27 11.9867 126.556 13.3893 127.452 15.192C128.358 16.9947 128.812 19.0907 128.812 21.48C128.812 23.8693 128.358 25.9653 127.452 27.768C126.556 29.5707 125.27 30.9733 123.596 31.976C121.932 32.9787 119.948 33.48 117.644 33.48ZM117.644 29.384C119.105 29.4053 120.321 29.0907 121.292 28.44C122.262 27.7893 122.988 26.8667 123.468 25.672C123.958 24.4773 124.204 23.08 124.204 21.48C124.204 19.88 123.958 18.4933 123.468 17.32C122.988 16.1467 122.262 15.2347 121.292 14.584C120.321 13.9333 119.105 13.5973 117.644 13.576C116.182 13.5547 114.966 13.8693 113.996 14.52C113.025 15.1707 112.294 16.0933 111.804 17.288C111.324 18.4827 111.084 19.88 111.084 21.48C111.084 23.08 111.324 24.4667 111.804 25.64C112.294 26.8133 113.025 27.7253 113.996 28.376C114.966 29.0267 116.182 29.3627 117.644 29.384ZM131.006 33V9.96H140.222C141.864 9.96 143.192 10.2907 144.206 10.952C145.219 11.6027 145.96 12.424 146.43 13.416C146.899 14.408 147.134 15.4107 147.134 16.424C147.134 17.7147 146.84 18.7867 146.254 19.64C145.678 20.4933 144.883 21.064 143.87 21.352V20.552C145.31 20.8507 146.387 21.5173 147.102 22.552C147.827 23.5867 148.19 24.744 148.19 26.024C148.19 27.4 147.934 28.6107 147.422 29.656C146.92 30.7013 146.152 31.5227 145.118 32.12C144.083 32.7067 142.782 33 141.214 33H131.006ZM135.422 28.904H140.766C141.352 28.904 141.875 28.7813 142.334 28.536C142.792 28.28 143.15 27.928 143.406 27.48C143.672 27.0213 143.806 26.4827 143.806 25.864C143.806 25.32 143.694 24.8347 143.47 24.408C143.246 23.9813 142.904 23.6453 142.446 23.4C141.998 23.144 141.438 23.016 140.766 23.016H135.422V28.904ZM135.422 18.952H140.158C140.648 18.952 141.086 18.8667 141.47 18.696C141.854 18.5253 142.158 18.264 142.382 17.912C142.606 17.5493 142.718 17.0853 142.718 16.52C142.718 15.816 142.499 15.224 142.062 14.744C141.624 14.264 140.99 14.024 140.158 14.024H135.422V18.952ZM148.781 33L155.821 9.96H162.317L169.357 33H164.877L158.605 12.68H159.437L153.261 33H148.781ZM153.005 28.2V24.136H165.165V28.2H153.005ZM171.224 33V9.96H175.64L185.656 25.32V9.96H190.072V33H185.656L175.64 17.64V33H171.224ZM203.425 33.48C201.121 33.48 199.132 32.9787 197.457 31.976C195.793 30.9733 194.508 29.5707 193.601 27.768C192.705 25.9653 192.257 23.8693 192.257 21.48C192.257 19.0907 192.705 16.9947 193.601 15.192C194.508 13.3893 195.793 11.9867 197.457 10.984C199.132 9.98133 201.121 9.48 203.425 9.48C206.07 9.48 208.289 10.136 210.081 11.448C211.884 12.76 213.153 14.536 213.889 16.776L209.505 17.992C209.078 16.5947 208.358 15.512 207.345 14.744C206.332 13.9653 205.025 13.576 203.425 13.576C201.964 13.576 200.742 13.9013 199.761 14.552C198.79 15.2027 198.06 16.12 197.569 17.304C197.078 18.488 196.833 19.88 196.833 21.48C196.833 23.08 197.078 24.472 197.569 25.656C198.06 26.84 198.79 27.7573 199.761 28.408C200.742 29.0587 201.964 29.384 203.425 29.384C205.025 29.384 206.332 28.9947 207.345 28.216C208.358 27.4373 209.078 26.3547 209.505 24.968L213.889 26.184C213.153 28.424 211.884 30.2 210.081 31.512C208.289 32.824 206.07 33.48 203.425 33.48Z" fill="#003249"/>
</svg>
