<svg width="188" height="48" viewBox="0 0 188 48" fill="none" xmlns="http://www.w3.org/2000/svg">
<path d="M20 48C14.2083 46.6 9.42708 43.41 5.65625 38.43C1.88542 33.45 0 27.92 0 21.84V7.2L20 0L40 7.2V21.84C40 27.92 38.1146 33.45 34.3438 38.43C30.5729 43.41 25.7917 46.6 20 48ZM20 42.96C24.0417 41.76 27.4167 39.39 30.125 35.85C32.8333 32.31 34.4167 28.36 34.875 24H20V5.1L5 10.5V21.84C5 22.28 5 22.64 5 22.92C5 23.2 5.04167 23.56 5.125 24H20V42.96Z" fill="#003249"/>
<path d="M56.063 38V12.08H71.903V16.976H60.959V22.592H69.743V27.488H60.959V38H56.063ZM74.5128 38V12.08H79.4088V38H74.5128ZM83.8052 38V12.08H88.7732L100.041 29.36V12.08H105.009V38H100.041L88.7732 20.72V38H83.8052ZM109.032 38V12.08H119.976C120.228 12.08 120.564 12.092 120.984 12.116C121.416 12.128 121.8 12.164 122.136 12.224C123.684 12.464 124.95 12.974 125.934 13.754C126.93 14.534 127.662 15.518 128.13 16.706C128.598 17.882 128.832 19.196 128.832 20.648C128.832 22.82 128.292 24.68 127.212 26.228C126.132 27.764 124.44 28.712 122.136 29.072L119.976 29.216H113.928V38H109.032ZM123.648 38L118.536 27.452L123.576 26.48L129.192 38H123.648ZM113.928 24.644H119.76C120.012 24.644 120.288 24.632 120.588 24.608C120.888 24.584 121.164 24.536 121.416 24.464C122.076 24.284 122.586 23.984 122.946 23.564C123.306 23.132 123.552 22.658 123.684 22.142C123.828 21.614 123.9 21.116 123.9 20.648C123.9 20.18 123.828 19.688 123.684 19.172C123.552 18.644 123.306 18.17 122.946 17.75C122.586 17.318 122.076 17.012 121.416 16.832C121.164 16.76 120.888 16.712 120.588 16.688C120.288 16.664 120.012 16.652 119.76 16.652H113.928V24.644ZM132.149 38V12.08H149.069V16.652H137.045V22.196H146.909V26.768H137.045V33.428H149.069V38H132.149ZM162.093 38.54C160.461 38.54 158.907 38.252 157.431 37.676C155.955 37.088 154.647 36.224 153.507 35.084C152.379 33.944 151.485 32.534 150.825 30.854C150.177 29.174 149.853 27.236 149.853 25.04C149.853 22.172 150.399 19.736 151.491 17.732C152.595 15.716 154.071 14.18 155.919 13.124C157.779 12.068 159.837 11.54 162.093 11.54C165.429 11.54 168.051 12.314 169.959 13.862C171.867 15.41 173.145 17.6 173.793 20.432L168.789 21.152C168.321 19.64 167.553 18.434 166.485 17.534C165.429 16.622 164.073 16.16 162.417 16.148C160.773 16.124 159.405 16.478 158.313 17.21C157.221 17.942 156.399 18.98 155.847 20.324C155.307 21.668 155.037 23.24 155.037 25.04C155.037 26.84 155.307 28.4 155.847 29.72C156.399 31.04 157.221 32.066 158.313 32.798C159.405 33.53 160.773 33.908 162.417 33.932C163.533 33.956 164.541 33.764 165.441 33.356C166.353 32.948 167.121 32.306 167.745 31.43C168.369 30.554 168.813 29.432 169.077 28.064H164.973V24.284H174.297C174.321 24.44 174.339 24.716 174.351 25.112C174.363 25.508 174.369 25.736 174.369 25.796C174.369 28.28 173.865 30.482 172.857 32.402C171.849 34.322 170.427 35.828 168.591 36.92C166.755 38 164.589 38.54 162.093 38.54Z" fill="#003249"/>
</svg>
