<svg width="148" height="46" viewBox="0 0 148 46" fill="none" xmlns="http://www.w3.org/2000/svg">
<path d="M6.9 36.8V20.7H11.5V36.8H6.9ZM20.7 36.8V20.7H25.3V36.8H20.7ZM0 46V41.4H46V46H0ZM34.5 36.8V20.7H39.1V36.8H34.5ZM0 16.1V11.5L23 0L46 11.5V16.1H0ZM10.235 11.5H23H35.765H10.235ZM10.235 11.5H35.765L23 5.175L10.235 11.5Z" fill="#003249"/>
<path d="M61.49 35V11.96H70.706C72.3487 11.96 73.6767 12.2907 74.69 12.952C75.7033 13.6027 76.4447 14.424 76.914 15.416C77.3833 16.408 77.618 17.4107 77.618 18.424C77.618 19.7147 77.3247 20.7867 76.738 21.64C76.162 22.4933 75.3673 23.064 74.354 23.352V22.552C75.794 22.8507 76.8713 23.5173 77.586 24.552C78.3113 25.5867 78.674 26.744 78.674 28.024C78.674 29.4 78.418 30.6107 77.906 31.656C77.4047 32.7013 76.6367 33.5227 75.602 34.12C74.5673 34.7067 73.266 35 71.698 35H61.49ZM65.906 30.904H71.25C71.8367 30.904 72.3593 30.7813 72.818 30.536C73.2767 30.28 73.634 29.928 73.89 29.48C74.1567 29.0213 74.29 28.4827 74.29 27.864C74.29 27.32 74.178 26.8347 73.954 26.408C73.73 25.9813 73.3887 25.6453 72.93 25.4C72.482 25.144 71.922 25.016 71.25 25.016H65.906V30.904ZM65.906 20.952H70.642C71.1327 20.952 71.57 20.8667 71.954 20.696C72.338 20.5253 72.642 20.264 72.866 19.912C73.09 19.5493 73.202 19.0853 73.202 18.52C73.202 17.816 72.9833 17.224 72.546 16.744C72.1087 16.264 71.474 16.024 70.642 16.024H65.906V20.952ZM90.753 35.48C88.449 35.48 86.4597 34.9787 84.785 33.976C83.121 32.9733 81.8357 31.5707 80.929 29.768C80.033 27.9653 79.585 25.8693 79.585 23.48C79.585 21.0907 80.033 18.9947 80.929 17.192C81.8357 15.3893 83.121 13.9867 84.785 12.984C86.4597 11.9813 88.449 11.48 90.753 11.48C93.3983 11.48 95.617 12.136 97.409 13.448C99.2117 14.76 100.481 16.536 101.217 18.776L96.833 19.992C96.4063 18.5947 95.6863 17.512 94.673 16.744C93.6597 15.9653 92.353 15.576 90.753 15.576C89.2917 15.576 88.0703 15.9013 87.089 16.552C86.1183 17.2027 85.3877 18.12 84.897 19.304C84.4063 20.488 84.161 21.88 84.161 23.48C84.161 25.08 84.4063 26.472 84.897 27.656C85.3877 28.84 86.1183 29.7573 87.089 30.408C88.0703 31.0587 89.2917 31.384 90.753 31.384C92.353 31.384 93.6597 30.9947 94.673 30.216C95.6863 29.4373 96.4063 28.3547 96.833 26.968L101.217 28.184C100.481 30.424 99.2117 32.2 97.409 33.512C95.617 34.824 93.3983 35.48 90.753 35.48ZM103.74 35V11.96H113.468C113.692 11.96 113.991 11.9707 114.364 11.992C114.748 12.0027 115.089 12.0347 115.388 12.088C116.764 12.3013 117.889 12.7547 118.764 13.448C119.649 14.1413 120.3 15.016 120.716 16.072C121.132 17.1173 121.34 18.2853 121.34 19.576C121.34 21.5067 120.86 23.16 119.9 24.536C118.94 25.9013 117.436 26.744 115.388 27.064L113.468 27.192H108.092V35H103.74ZM116.732 35L112.188 25.624L116.668 24.76L121.66 35H116.732ZM108.092 23.128H113.276C113.5 23.128 113.745 23.1173 114.012 23.096C114.279 23.0747 114.524 23.032 114.748 22.968C115.335 22.808 115.788 22.5413 116.108 22.168C116.428 21.784 116.647 21.3627 116.764 20.904C116.892 20.4347 116.956 19.992 116.956 19.576C116.956 19.16 116.892 18.7227 116.764 18.264C116.647 17.7947 116.428 17.3733 116.108 17C115.788 16.616 115.335 16.344 114.748 16.184C114.524 16.12 114.279 16.0773 114.012 16.056C113.745 16.0347 113.5 16.024 113.276 16.024H108.092V23.128ZM124.178 35V11.96H133.906C134.13 11.96 134.428 11.9707 134.802 11.992C135.186 12.0027 135.527 12.0347 135.826 12.088C137.202 12.3013 138.327 12.7547 139.201 13.448C140.087 14.1413 140.738 15.016 141.154 16.072C141.57 17.1173 141.778 18.2853 141.778 19.576C141.778 20.8667 141.564 22.04 141.138 23.096C140.722 24.1413 140.071 25.0107 139.186 25.704C138.311 26.3973 137.191 26.8507 135.826 27.064C135.527 27.1067 135.186 27.1387 134.802 27.16C134.418 27.1813 134.119 27.192 133.906 27.192H128.53V35H124.178ZM128.53 23.128H133.714C133.938 23.128 134.183 23.1173 134.45 23.096C134.716 23.0747 134.962 23.032 135.186 22.968C135.772 22.808 136.226 22.5413 136.546 22.168C136.866 21.784 137.084 21.3627 137.202 20.904C137.33 20.4347 137.394 19.992 137.394 19.576C137.394 19.16 137.33 18.7227 137.202 18.264C137.084 17.7947 136.866 17.3733 136.546 17C136.226 16.616 135.772 16.344 135.186 16.184C134.962 16.12 134.716 16.0773 134.45 16.056C134.183 16.0347 133.938 16.024 133.714 16.024H128.53V23.128Z" fill="#003249"/>
</svg>
