<svg width="200" height="33" viewBox="0 0 200 33" fill="none" xmlns="http://www.w3.org/2000/svg">
<g clip-path="url(#clip0_251_8267)">
<path fill-rule="evenodd" clip-rule="evenodd" d="M199.973 6.66894L183.894 25.8639H199.973V30.7414H177.562V25.6089L193.699 6.66894H178.682V1.9052H199.974V6.66894M167.101 1.85644V6.66894H158.134V30.7414H153.279V6.66894H144.314V1.85644H167.101ZM128.535 20.9589C130.204 20.128 131.608 18.8484 132.59 17.2637C133.572 15.679 134.093 13.8519 134.094 11.9877C134.094 6.6927 129.746 1.96269 124.331 1.85644H113.681V30.7414H118.537V22.0427H122.937L132.949 32.2264L136.324 28.8789L128.536 20.9589H128.535ZM123.98 17.2764H118.537V6.69894H123.98C126.94 6.69894 129.35 9.07019 129.35 11.9889C129.35 14.9077 126.94 17.2764 123.98 17.2764ZM92.1412 1.85644H86.3112L75.2263 30.7414H80.315L82.3925 25.1139H96.0637L98.1387 30.7414H103.229L92.1412 1.85644ZM84.2412 20.6114L89.2312 7.57395L94.2125 20.6114H84.2412ZM65.8249 1.85644V20.1302C65.8249 26.3252 60.8125 31.3639 54.6438 31.3639C48.4763 31.3639 43.4575 26.3239 43.4575 20.1302V1.85644H48.3087V20.1302C48.2024 23.6977 51.0912 26.5989 54.6462 26.5989C58.1924 26.5989 61.0812 23.6977 61.0112 20.1302V1.85644H65.8249ZM28.0925 25.2052C30.0003 22.6082 31.0271 19.4689 31.0225 16.2464C31.0225 7.90269 24.2537 1.10645 15.9449 1.10645C7.6287 1.10645 0.867432 7.90269 0.867432 16.2464C0.867432 24.5977 7.6287 31.3864 15.9449 31.3864C19.2124 31.3864 22.2437 30.3389 24.7162 28.5527L28.4962 32.3464L31.8512 28.9814L28.0925 25.2052ZM24.6812 21.7802L19.11 16.1864L15.7587 19.5577L21.3012 25.1202C19.6887 26.1048 17.8356 26.6247 15.9462 26.6227C10.245 26.6227 5.61124 21.9714 5.61124 16.2477C5.61124 10.5302 10.245 5.87269 15.9462 5.87269C21.6375 5.87269 26.2774 10.5289 26.2774 16.2477C26.2789 18.2061 25.7255 20.1248 24.6812 21.7814V21.7802Z" fill="white"/>
</g>
<defs>
<clipPath id="clip0_251_8267">
<rect width="200" height="32.5" fill="white"/>
</clipPath>
</defs>
</svg>
