<svg width="126" height="133" viewBox="0 0 126 133" fill="none" xmlns="http://www.w3.org/2000/svg">
<path d="M43.8908 68.6058H81.7101C83.3048 68.6058 84.5978 69.8989 84.5978 71.4935V121.296C84.5978 123.388 82.4432 124.785 80.5334 123.933L65.1535 117.07C63.656 116.402 61.9449 116.402 60.4474 117.07L45.0676 123.933C43.1577 124.785 41.0031 123.388 41.0031 121.296V71.4935C41.0031 69.8989 42.2962 68.6058 43.8908 68.6058Z" fill="url(#paint0_linear_255_8137)" stroke="url(#paint1_linear_255_8137)" stroke-width="2.88738"/>
<g clip-path="url(#clip0_255_8137)">
<path d="M51.5121 78.3905L-12.78 41.2714C-12.9828 41.1543 -13.2421 41.2238 -13.3591 41.4266C-22.9932 58.1133 -17.2759 79.4504 -0.589215 89.0845L33.8562 108.972L51.5121 78.3905Z" fill="#22323A"/>
</g>
<g clip-path="url(#clip1_255_8137)">
<path d="M51.5123 72.3094L-13.147 34.9784C-22.8981 51.8678 -17.1114 73.4643 -0.22193 83.2154L33.8563 102.891L51.5123 72.3094Z" fill="url(#paint2_linear_255_8137)"/>
<path d="M51.5123 72.3094L-13.147 34.9784C-22.8981 51.8678 -17.1114 73.4643 -0.22193 83.2154L33.8563 102.891L51.5123 72.3094Z" fill="#E8F7FF" style="mix-blend-mode:color"/>
</g>
<g clip-path="url(#clip2_255_8137)">
<path d="M74.4878 78.3905L138.78 41.2714C138.983 41.1543 139.242 41.2238 139.359 41.4266C148.993 58.1133 143.276 79.4504 126.589 89.0845L92.1437 108.972L74.4878 78.3905Z" fill="#22323A"/>
</g>
<g clip-path="url(#clip3_255_8137)">
<path d="M74.4876 72.3094L139.147 34.9784C148.898 51.8678 143.111 73.4643 126.222 83.2154L92.1436 102.891L74.4876 72.3094Z" fill="url(#paint3_linear_255_8137)"/>
<path d="M74.4876 72.3094L139.147 34.9784C148.898 51.8678 143.111 73.4643 126.222 83.2154L92.1436 102.891L74.4876 72.3094Z" fill="#E8F7FF" style="mix-blend-mode:color"/>
</g>
<g filter="url(#filter0_d_255_8137)">
<path d="M51.4505 26.4992C58.5973 22.373 67.4026 22.373 74.5495 26.4992L91.908 36.5211C99.0548 40.6474 103.457 48.273 103.457 56.5255V76.5693C103.457 84.8218 99.0548 92.4474 91.9079 96.5736L74.5495 106.596C67.4026 110.722 58.5973 110.722 51.4505 106.596L34.092 96.5736C26.9452 92.4474 22.5425 84.8218 22.5425 76.5693V56.5255C22.5425 48.273 26.9452 40.6474 34.092 36.5211L51.4505 26.4992Z" fill="black" style="mix-blend-mode:multiply" shape-rendering="crispEdges"/>
</g>
<path d="M51.4505 26.4992C58.5973 22.373 67.4026 22.373 74.5495 26.4992L91.908 36.5211C99.0548 40.6474 103.457 48.273 103.457 56.5255V76.5693C103.457 84.8218 99.0548 92.4474 91.9079 96.5736L74.5495 106.596C67.4026 110.722 58.5973 110.722 51.4505 106.596L34.092 96.5736C26.9452 92.4474 22.5425 84.8218 22.5425 76.5693V56.5255C22.5425 48.273 26.9452 40.6474 34.092 36.5211L51.4505 26.4992Z" fill="#0C3855"/>
<path d="M51.4505 26.4992C58.5973 22.373 67.4026 22.373 74.5495 26.4992L91.908 36.5211C99.0548 40.6474 103.457 48.273 103.457 56.5255V76.5693C103.457 84.8218 99.0548 92.4474 91.9079 96.5736L74.5495 106.596C67.4026 110.722 58.5973 110.722 51.4505 106.596L34.092 96.5736C26.9452 92.4474 22.5425 84.8218 22.5425 76.5693V56.5255C22.5425 48.273 26.9452 40.6474 34.092 36.5211L51.4505 26.4992Z" fill="#E8F7FF"/>
<path d="M51.4505 20.4182C58.5973 16.292 67.4026 16.292 74.5495 20.4182L91.908 30.4401C99.0548 34.5664 103.457 42.192 103.457 50.4445V70.4883C103.457 78.7408 99.0548 86.3664 91.9079 90.4926L74.5495 100.515C67.4026 104.641 58.5973 104.641 51.4505 100.515L34.092 90.4926C26.9452 86.3664 22.5425 78.7408 22.5425 70.4883V50.4445C22.5425 42.192 26.9452 34.5664 34.092 30.4401L51.4505 20.4182Z" fill="url(#paint4_radial_255_8137)"/>
<path d="M51.4505 20.4182C58.5973 16.292 67.4026 16.292 74.5495 20.4182L91.908 30.4401C99.0548 34.5664 103.457 42.192 103.457 50.4445V70.4883C103.457 78.7408 99.0548 86.3664 91.9079 90.4926L74.5495 100.515C67.4026 104.641 58.5973 104.641 51.4505 100.515L34.092 90.4926C26.9452 86.3664 22.5425 78.7408 22.5425 70.4883V50.4445C22.5425 42.192 26.9452 34.5664 34.092 30.4401L51.4505 20.4182Z" fill="white" fill-opacity="0.1" style="mix-blend-mode:color-dodge"/>
<path d="M55.7816 26.1918C60.2484 23.6129 65.7514 23.6129 70.2182 26.1918L89.0736 37.0776C93.5404 39.6565 96.2924 44.4227 96.2924 49.5805V71.353C96.2922 76.5106 93.5403 81.2761 89.0736 83.8549L70.2182 94.7416C65.7515 97.3203 60.2483 97.3204 55.7816 94.7416L36.9262 83.8549C32.4596 81.2761 29.7076 76.5105 29.7074 71.353V49.5805C29.7074 44.4227 32.4594 39.6565 36.9262 37.0776L55.7816 26.1918Z" fill="url(#paint5_radial_255_8137)"/>
<path d="M55.7816 26.1918C60.2484 23.6129 65.7514 23.6129 70.2182 26.1918L89.0736 37.0776C93.5404 39.6565 96.2924 44.4227 96.2924 49.5805V71.353C96.2922 76.5106 93.5403 81.2761 89.0736 83.8549L70.2182 94.7416C65.7515 97.3203 60.2483 97.3204 55.7816 94.7416L36.9262 83.8549C32.4596 81.2761 29.7076 76.5105 29.7074 71.353V49.5805C29.7074 44.4227 32.4594 39.6565 36.9262 37.0776L55.7816 26.1918Z" fill="url(#paint6_linear_255_8137)" fill-opacity="0.2" style="mix-blend-mode:multiply"/>
<path d="M55.7816 26.1918C60.2484 23.6129 65.7514 23.6129 70.2182 26.1918L89.0736 37.0776C93.5404 39.6565 96.2924 44.4227 96.2924 49.5805V71.353C96.2922 76.5106 93.5403 81.2761 89.0736 83.8549L70.2182 94.7416C65.7515 97.3203 60.2483 97.3204 55.7816 94.7416L36.9262 83.8549C32.4596 81.2761 29.7076 76.5105 29.7074 71.353V49.5805C29.7074 44.4227 32.4594 39.6565 36.9262 37.0776L55.7816 26.1918Z" stroke="url(#paint7_linear_255_8137)" stroke-width="5.77476"/>
<path d="M60.1468 48.0036C61.2922 45.6036 64.7085 45.6034 65.8538 48.0036L68.5843 53.7272C68.6243 53.8109 68.7042 53.8684 68.7962 53.8806L75.0833 54.7097C77.72 55.0572 78.7758 58.3064 76.847 60.1374L72.2473 64.5036C72.1803 64.5676 72.1504 64.6615 72.1673 64.7526L73.3216 70.988C73.8054 73.6028 71.0416 75.6108 68.7044 74.3425L63.1311 71.3171C63.0496 71.2728 62.951 71.273 62.8694 71.3171L57.2952 74.3425C54.958 75.6105 52.1942 73.6026 52.678 70.988L53.8333 64.7526C53.8502 64.6614 53.8194 64.5676 53.7522 64.5036L49.1526 60.1374C47.2241 58.3064 48.2799 55.0574 50.9163 54.7097L57.2034 53.8806C57.2954 53.8684 57.3752 53.8109 57.4153 53.7272L60.1468 48.0036Z" fill="url(#paint8_linear_255_8137)" stroke="url(#paint9_linear_255_8137)" stroke-width="2.88738"/>
<circle cx="55.3376" cy="58.2471" r="1.12024" fill="#FDFBCD"/>
<path d="M58.4591 57.4737C59.9298 56.7974 60.6366 56.1363 61.3211 54.4711" stroke="#FEFDCF" stroke-width="3.68489" stroke-linecap="round"/>
<path d="M51.4505 20.4182C58.5973 16.292 67.4026 16.292 74.5495 20.4182L91.908 30.4401C99.0548 34.5664 103.457 42.192 103.457 50.4445V70.4883C103.457 78.7408 99.0548 86.3664 91.9079 90.4926L74.5495 100.515C67.4026 104.641 58.5973 104.641 51.4505 100.515L34.092 90.4926C26.9452 86.3664 22.5425 78.7408 22.5425 70.4883V50.4445C22.5425 42.192 26.9452 34.5664 34.092 30.4401L51.4505 20.4182Z" fill="#E8F7FF"/>
<path d="M81.0698 87.61C81.5563 86.8398 83.0144 86.3301 84.313 86.0377C85.1964 85.8388 85.9535 86.517 85.5938 87.348C85.1964 88.2663 84.5189 89.2394 83.92 90.0095C82.9497 91.2571 80.1752 89.0265 81.0698 87.61Z" fill="#23343C"/>
<path fill-rule="evenodd" clip-rule="evenodd" d="M85.6783 87.0274C85.6676 87.1302 85.6414 87.2376 85.5939 87.3474C85.1965 88.2657 84.5189 89.2397 83.92 90.0098C82.9676 91.2338 80.2793 89.1089 81.0251 87.6906C80.8735 89.0668 83.1756 90.7247 84.0419 89.6113C84.6236 88.8633 85.277 87.9222 85.6783 87.0274Z" fill="white"/>
<path d="M89.1989 88.0155C89.0981 88.5288 87.2875 89.2114 86.1316 89.0809C85.0214 88.6002 86.6937 86.7275 87.2933 86.624C87.8929 86.5205 89.3248 87.374 89.1989 88.0155Z" fill="#23343C"/>
<path fill-rule="evenodd" clip-rule="evenodd" d="M88.6662 87.1476C89.0087 87.4119 89.2532 87.734 89.1979 88.0155C89.0968 88.5287 87.2866 89.2109 86.1308 89.0803C86.0359 89.0392 85.9627 88.9867 85.906 88.9272C85.9436 88.9526 85.9845 88.9778 86.0319 88.9983C87.1877 89.1289 88.9984 88.4458 89.0991 87.9325C89.1487 87.6794 88.9547 87.3948 88.6662 87.1476Z" fill="white"/>
<path d="M75.6752 23.8731C75.5707 24.879 76.0371 26.5577 76.8422 28.2609C77.797 30.2807 79.699 31.6561 81.8442 32.2797C81.9674 32.3155 82.0893 32.3501 82.2101 32.3834C86.6586 33.611 88.3799 29.8094 84.6411 27.1044C81.9362 25.1476 78.8197 23.3885 77.0786 23.0287C76.4333 22.8954 75.7433 23.2177 75.6752 23.8731Z" fill="white"/>
<g opacity="0.2" filter="url(#filter1_f_255_8137)" style="mix-blend-mode:soft-light">
<path fill-rule="evenodd" clip-rule="evenodd" d="M51.6255 20.3203C58.7408 16.2939 67.4605 16.3253 74.5493 20.4179L80.7525 23.999C81.8453 29.4291 82.0498 34.8858 81.2974 40.0713C79.7483 50.7468 74.2825 59.398 66.1021 64.1211C57.9216 68.8441 47.6962 69.2521 37.6763 65.2558C32.2205 63.0798 27.0707 59.6926 22.5425 55.3857V50.4443C22.5426 42.2532 26.8809 34.6811 33.9341 30.5341L51.6255 20.3203Z" fill="url(#paint10_linear_255_8137)"/>
</g>
<defs>
<filter id="filter0_d_255_8137" x="10.993" y="23.4045" width="104.014" height="109.385" filterUnits="userSpaceOnUse" color-interpolation-filters="sRGB">
<feFlood flood-opacity="0" result="BackgroundImageFix"/>
<feColorMatrix in="SourceAlpha" type="matrix" values="0 0 0 0 0 0 0 0 0 0 0 0 0 0 0 0 0 0 127 0" result="hardAlpha"/>
<feOffset dy="11.5495"/>
<feGaussianBlur stdDeviation="5.77476"/>
<feComposite in2="hardAlpha" operator="out"/>
<feColorMatrix type="matrix" values="0 0 0 0 0 0 0 0 0 0 0 0 0 0 0 0 0 0 0.25 0"/>
<feBlend mode="normal" in2="BackgroundImageFix" result="effect1_dropShadow_255_8137"/>
<feBlend mode="normal" in="SourceGraphic" in2="effect1_dropShadow_255_8137" result="shape"/>
</filter>
<filter id="filter1_f_255_8137" x="5.21823" y="1.90735e-06" width="93.8514" height="85.308" filterUnits="userSpaceOnUse" color-interpolation-filters="sRGB">
<feFlood flood-opacity="0" result="BackgroundImageFix"/>
<feBlend mode="normal" in="SourceGraphic" in2="BackgroundImageFix" result="shape"/>
<feGaussianBlur stdDeviation="8.66214" result="effect1_foregroundBlur_255_8137"/>
</filter>
<linearGradient id="paint0_linear_255_8137" x1="62.8005" y1="95.1265" x2="62.8005" y2="127.972" gradientUnits="userSpaceOnUse">
<stop stop-color="#7B1012"/>
<stop offset="1" stop-color="#EA1140"/>
</linearGradient>
<linearGradient id="paint1_linear_255_8137" x1="62.8005" y1="88.2043" x2="62.8005" y2="127.972" gradientUnits="userSpaceOnUse">
<stop stop-color="#E67D2D"/>
<stop offset="1" stop-color="#FCDC60"/>
</linearGradient>
<linearGradient id="paint2_linear_255_8137" x1="42.6843" y1="87.6" x2="-21.975" y2="50.2689" gradientUnits="userSpaceOnUse">
<stop stop-color="#22323A"/>
<stop offset="1" stop-color="#AFBFC7"/>
</linearGradient>
<linearGradient id="paint3_linear_255_8137" x1="83.3156" y1="87.6" x2="147.975" y2="50.2689" gradientUnits="userSpaceOnUse">
<stop stop-color="#22323A"/>
<stop offset="1" stop-color="#AFBFC7"/>
</linearGradient>
<radialGradient id="paint4_radial_255_8137" cx="0" cy="0" r="1" gradientUnits="userSpaceOnUse" gradientTransform="translate(63 13.7501) rotate(90) scale(93.4325 80.9149)">
<stop stop-color="#95CCEA"/>
<stop offset="1" stop-color="#104D7D"/>
</radialGradient>
<radialGradient id="paint5_radial_255_8137" cx="0" cy="0" r="1" gradientUnits="userSpaceOnUse" gradientTransform="translate(63 25.3578) rotate(90) scale(70.217 60.8097)">
<stop stop-color="#95CCEA"/>
<stop offset="1" stop-color="#104D7D"/>
</radialGradient>
<linearGradient id="paint6_linear_255_8137" x1="63" y1="25.3578" x2="63" y2="95.5749" gradientUnits="userSpaceOnUse">
<stop stop-opacity="0"/>
<stop offset="1"/>
</linearGradient>
<linearGradient id="paint7_linear_255_8137" x1="41.7884" y1="25.3578" x2="83.5294" y2="95.5749" gradientUnits="userSpaceOnUse">
<stop stop-color="#0C3855"/>
<stop offset="1" stop-color="#90DDFF"/>
</linearGradient>
<linearGradient id="paint8_linear_255_8137" x1="54.4107" y1="50.9256" x2="64.1355" y2="70.7541" gradientUnits="userSpaceOnUse">
<stop stop-color="#FFE49B"/>
<stop offset="1" stop-color="#99895D"/>
</linearGradient>
<linearGradient id="paint9_linear_255_8137" x1="65.0978" y1="85.2237" x2="46.4319" y2="47.6472" gradientUnits="userSpaceOnUse">
<stop stop-color="#63141C"/>
<stop offset="1" stop-color="#F98B96"/>
</linearGradient>
<linearGradient id="paint10_linear_255_8137" x1="66.101" y1="64.2724" x2="44.8446" y2="25.9526" gradientUnits="userSpaceOnUse">
<stop stop-color="white"/>
<stop offset="1" stop-color="white" stop-opacity="0.2"/>
</linearGradient>
<clipPath id="clip0_255_8137">
<rect width="22.5425" height="43.2817" fill="white" transform="matrix(-1 0 0 1 22.5425 40.9301)"/>
</clipPath>
<clipPath id="clip1_255_8137">
<rect width="22.5425" height="43.2817" fill="white" transform="matrix(-1 0 0 1 22.5425 34.8491)"/>
</clipPath>
<clipPath id="clip2_255_8137">
<rect width="22.5425" height="43.2817" fill="white" transform="translate(103.457 40.9301)"/>
</clipPath>
<clipPath id="clip3_255_8137">
<rect width="22.5425" height="43.2817" fill="white" transform="translate(103.457 34.8491)"/>
</clipPath>
</defs>
</svg>
